<?xml version="1.0" encoding="utf-8"?>
<!-- Generator: Adobe Illustrator 27.5.0, SVG Export Plug-In . SVG Version: 6.00 Build 0)  -->
<svg version="1.1" xmlns="http://www.w3.org/2000/svg" xmlns:xlink="http://www.w3.org/1999/xlink" x="0px" y="0px"
	 viewBox="0 0 105 105" style="enable-background:new 0 0 105 105;" xml:space="preserve">
<style type="text/css">
	.st0{fill:#2B2B2B;}
	.st1{fill:#FBFBFB;}
</style>
<g id="Layer_1">
</g>
<g id="Layer_4">
	<g>
		<path class="st1" d="M98.3,39.5l-9.1-9.1c-2-2-4.7-3.1-7.4-3.1H58.9c-0.9,0-1.7-0.8-1.7-1.7v-2.4c0-1.3,0.5-2.5,1.4-3.3l7.1-7.1
			c0.9-0.9,2.1-1.4,3.3-1.4h13.7c0.7,0,1.3-0.6,1.3-1.3V3.4c0-0.7-0.6-1.3-1.3-1.3H67.7c-2.8,0-5.5,1.1-7.4,3.1l-9.1,9.1
			c-2,2-3.1,4.7-3.1,7.4v3.9c0,0.9-0.8,1.7-1.7,1.7H23.6c-2.8,0-5.5,1.1-7.4,3.1L7,39.5c-2,2-3.1,4.7-3.1,7.4v32.9
			c0,2.8,1.1,5.5,3.1,7.4l6.5,6.5c1.9,1.9,4.5,3.2,7.2,3.3c2.9,0.1,5.7-1,7.8-3l12-12c0.9-0.9,2.2-1.5,3.5-1.5h17.3
			c1.3,0,2.6,0.5,3.5,1.5l11.7,11.7c1.9,1.9,4.5,3.2,7.2,3.3c2.9,0.1,5.7-1,7.8-3l6.8-6.8c2-2,3.1-4.7,3.1-7.4V47
			C101.4,44.2,100.2,41.5,98.3,39.5z M92.2,78.1c0,1.5-0.6,2.9-1.7,4L85,87.6c-0.3,0.3-0.6,0.4-0.8,0.4s-0.6-0.1-0.8-0.4L70.2,74.5
			c-2-2-4.7-3.1-7.4-3.1H42.5c-2.8,0-5.5,1.1-7.4,3.1L22,87.6c-0.3,0.3-0.8,0.4-0.8,0.4s-0.6-0.1-0.8-0.4l-5.5-5.5
			c-1.1-1.1-1.7-2.5-1.7-4V48.8c0-1.5,0.6-2.9,1.7-4l6.6-6.6c1.1-1.1,2.5-1.7,4-1.7h54.5c1.5,0,2.9,0.6,4,1.7l6.6,6.6
			c1.1,1.1,1.7,2.5,1.7,4V78.1z"/>
		<path class="st1" d="M56.6,60.4h-7.9c-0.7,0-1.2-0.5-1.2-1.2v-7.9c0-0.7,0.5-1.2,1.2-1.2h7.9c0.7,0,1.2,0.5,1.2,1.2v7.9
			C57.8,59.8,57.3,60.4,56.6,60.4z"/>
		<path class="st1" d="M34.5,60.4h-7.9c-0.7,0-1.2-0.5-1.2-1.2v-7.9c0-0.7,0.5-1.2,1.2-1.2h7.9c0.7,0,1.2,0.5,1.2,1.2v7.9
			C35.8,59.8,35.2,60.4,34.5,60.4z"/>
		<path class="st1" d="M78.6,60.4h-7.9c-0.7,0-1.2-0.5-1.2-1.2v-7.9c0-0.7,0.5-1.2,1.2-1.2h7.9c0.7,0,1.2,0.5,1.2,1.2v7.9
			C79.9,59.8,79.3,60.4,78.6,60.4z"/>
	</g>
</g>
</svg>
